<svg xmlns="http://www.w3.org/2000/svg" xmlns:xlink="http://www.w3.org/1999/xlink" width="48" zoomAndPan="magnify" viewBox="0 0 36 36.000001" height="48" preserveAspectRatio="xMidYMid meet" version="1.0"><defs><g/><clipPath id="id1"><path d="M 3 1 L 35.511719 1 L 35.511719 16 L 3 16 Z M 3 1 " clip-rule="nonzero"/></clipPath><clipPath id="id2"><path d="M 1 18 L 34 18 L 34 32.582031 L 1 32.582031 Z M 1 18 " clip-rule="nonzero"/></clipPath><clipPath id="id3"><path d="M 0.488281 20 L 33 20 L 33 33.949219 L 0.488281 33.949219 Z M 0.488281 20 " clip-rule="nonzero"/></clipPath></defs><g clip-path="url(#id1)"><path fill="#0f4c7d" d="M 32.777344 13.066406 C 32.417969 13.835938 31.519531 14.273438 30.683594 14.21875 L 24.800781 13.667969 C 22.007812 13.359375 22.402344 9.238281 25.203125 9.453125 C 25.203125 9.453125 26.921875 9.613281 26.921875 9.613281 C 24.777344 7.136719 21.597656 5.617188 18.207031 5.617188 C 13.152344 5.617188 8.753906 8.828125 7.261719 13.609375 C 6.390625 16.257812 2.394531 15.023438 3.183594 12.359375 C 6.824219 0.328125 22.984375 -2.449219 30.625 7.425781 C 30.625 7.425781 31.203125 6.113281 31.203125 6.113281 C 32.367188 3.585938 36.203125 5.242188 35.117188 7.8125 C 35.117188 7.8125 32.796875 13.027344 32.777344 13.066406 Z M 32.777344 13.066406 " fill-opacity="1" fill-rule="nonzero"/></g><g clip-path="url(#id2)"><path fill="#0f4c7d" d="M 29.148438 20.324219 C 29.5 19.207031 30.691406 18.582031 31.820312 18.925781 C 32.949219 19.269531 33.582031 20.457031 33.230469 21.574219 C 31.183594 28.140625 25.144531 32.550781 18.207031 32.550781 C 13.304688 32.550781 8.726562 30.234375 5.789062 26.507812 L 5.210938 27.820312 C 4.035156 30.355469 0.214844 28.683594 1.296875 26.121094 C 1.398438 25.957031 3.769531 20.328125 3.886719 20.480469 C 4.328125 19.9375 5.03125 19.660156 5.730469 19.714844 L 11.613281 20.265625 C 14.402344 20.574219 14.015625 24.6875 11.210938 24.480469 C 11.210938 24.480469 9.492188 24.320312 9.492188 24.320312 C 15.167969 31.074219 26.625 28.835938 29.148438 20.324219 Z M 29.148438 20.324219 " fill-opacity="1" fill-rule="nonzero"/></g><path fill="#1a8de6" d="M 31.910156 14.433594 C 31.558594 15.207031 30.679688 15.644531 29.859375 15.589844 L 24.09375 15.039062 C 21.355469 14.730469 21.746094 10.609375 24.488281 10.824219 C 24.488281 10.824219 26.171875 10.984375 26.171875 10.984375 C 24.070312 8.507812 20.957031 6.988281 17.632812 6.988281 C 12.679688 6.988281 8.367188 10.199219 6.90625 14.980469 C 6.050781 17.628906 2.136719 16.394531 2.90625 13.730469 C 6.476562 1.699219 22.3125 -1.078125 29.800781 8.796875 C 29.800781 8.796875 30.367188 7.484375 30.367188 7.484375 C 31.507812 4.957031 35.265625 6.609375 34.203125 9.179688 C 34.203125 9.179688 31.929688 14.398438 31.910156 14.433594 Z M 31.910156 14.433594 " fill-opacity="1" fill-rule="nonzero"/><g clip-path="url(#id3)"><path fill="#1a8de6" d="M 28.355469 21.691406 C 28.699219 20.578125 29.867188 19.949219 30.976562 20.296875 C 32.078125 20.640625 32.699219 21.828125 32.355469 22.945312 C 30.351562 29.507812 24.433594 33.921875 17.632812 33.921875 C 12.828125 33.921875 8.34375 31.605469 5.464844 27.878906 L 4.894531 29.191406 C 3.742188 31.726562 0 30.054688 1.0625 27.492188 C 1.164062 27.324219 3.484375 21.699219 3.597656 21.851562 C 4.03125 21.308594 4.722656 21.03125 5.402344 21.082031 L 11.171875 21.632812 C 13.90625 21.945312 13.523438 26.058594 10.777344 25.851562 C 10.777344 25.851562 9.089844 25.6875 9.089844 25.6875 C 14.652344 32.441406 25.882812 30.207031 28.355469 21.691406 Z M 28.355469 21.691406 " fill-opacity="1" fill-rule="nonzero"/></g><g fill="#fafefd" fill-opacity="1"><g transform="translate(9.067945, 25.850354)"><g><path d="M 12.921875 0 L 11.65625 -4.171875 L 5.265625 -4.171875 L 4 0 L 0 0 L 6.1875 -17.578125 L 10.71875 -17.578125 L 16.921875 0 Z M 10.765625 -7.28125 L 9.5 -11.359375 C 9.414062 -11.628906 9.304688 -11.976562 9.171875 -12.40625 C 9.046875 -12.832031 8.914062 -13.265625 8.78125 -13.703125 C 8.65625 -14.148438 8.550781 -14.535156 8.46875 -14.859375 C 8.382812 -14.535156 8.269531 -14.128906 8.125 -13.640625 C 7.988281 -13.160156 7.859375 -12.703125 7.734375 -12.265625 C 7.609375 -11.835938 7.519531 -11.535156 7.46875 -11.359375 L 6.203125 -7.28125 Z M 10.765625 -7.28125 "/></g></g></g></svg>